<?xml version="1.0" encoding="UTF-8" standalone="no"?>
<!-- Created with Inkscape (http://www.inkscape.org/) -->
<svg xmlns:dc="http://purl.org/dc/elements/1.1/" xmlns:cc="http://creativecommons.org/ns#" xmlns:rdf="http://www.w3.org/1999/02/22-rdf-syntax-ns#" xmlns:svg="http://www.w3.org/2000/svg" xmlns="http://www.w3.org/2000/svg" xmlns:xlink="http://www.w3.org/1999/xlink" xmlns:sodipodi="http://sodipodi.sourceforge.net/DTD/sodipodi-0.dtd" xmlns:inkscape="http://www.inkscape.org/namespaces/inkscape" version="1.0" width="800" height="247" viewBox="0 0 801 248" id="svg2" xml:space="preserve" sodipodi:version="0.32" inkscape:version="0.48.0 r9654" sodipodi:docname="KB_France 800px.svg" inkscape:output_extension="org.inkscape.output.svg.inkscape" style="display:inline">
  <metadata id="metadata316">
    <rdf:RDF>
      <cc:Work rdf:about="">
        <dc:format>image/svg+xml</dc:format>
        <dc:type rdf:resource="http://purl.org/dc/dcmitype/StillImage"/>
        <dc:title/>
      </cc:Work>
    </rdf:RDF>
  </metadata>
  <sodipodi:namedview id="base" inkscape:window-width="1679" inkscape:window-height="1019" inkscape:pageshadow="2" inkscape:pageopacity="0.0" borderopacity="1.0" bordercolor="#666666" pagecolor="#ffffff" showguides="true" inkscape:guide-bbox="true" inkscape:zoom="0.6" inkscape:cx="400" inkscape:cy="123.5" inkscape:current-layer="layer3" inkscape:window-x="0" inkscape:window-y="0" showgrid="true" inkscape:window-maximized="1" inkscape:snap-bbox="true" inkscape:bbox-nodes="true" inkscape:snap-nodes="true" inkscape:snap-grids="true" inkscape:bbox-paths="false" fit-margin-top="0" fit-margin-left="0" fit-margin-right="0" fit-margin-bottom="0" units="px" inkscape:snap-bbox-edge-midpoints="false" inkscape:snap-bbox-midpoints="false" inkscape:snap-global="true" inkscape:snap-page="true" inkscape:snap-smooth-nodes="true">
  </sodipodi:namedview>
<defs id="defs4">
   <marker id="TriangleOutM" inkscape:stockid="TriangleOutM" style="overflow:visible" orient="auto" refY="0" refX="0">
    <path id="path4356" style="fill-rule:evenodd;stroke:black;stroke-width:1pt;marker-start:none" d="M 5.77,0 -2.88,5 -2.88,-5 5.77,0 z" transform="scale(0.4,0.4)" inkscape:connector-curvature="0"/>
  </marker>
  <style id="style6" type="text/css">

<!--    Styles de TEXTE  : T_ : text ; C_ : color | _S : small ; _s : smaller ; _M : medium   -->
    
    <![CDATA[
      .T_start   { text-align:start ;text-anchor:start ;writing-mode:lr-tb;font-weight:bold;font-family:Nimbus Sans L, Arial, sans-serif }
      .T_center  { text-align:center;text-anchor:middle;writing-mode:lr-tb;font-weight:bold;font-family:Nimbus Sans L, Arial, sans-serif }

      .T_size_s  { font-size:12px }
      .T_size_S  { font-size:14px }
      .T_size_m  { font-size:16px }
      .T_size_M  { font-size:18px }
      .T_size_L  { font-size:21px }

      .T_bold    { font-weight:bold }

      .C_black   { fill:black      ;fill-opacity:1 ;stroke:none;}
      .C_grey    { fill:dimgray    ;fill-opacity:1 ;stroke:none;}
      .C_AltGr   { fill:blue       ;fill-opacity:1 ;stroke:none;}
      .C_DeadKey { fill:red        ;fill-opacity:1 ;stroke:none;}
      .C_Linux   { fill:darkviolet ;fill-opacity:1 ;stroke:none;}
      .C_Linux_M { fill:green      ;fill-opacity:1 ;stroke:none;}
      .C_Linux_X { fill:lightgreen ;fill-opacity:1 ;stroke:none;}
      .C_Linux_D { fill:magenta    ;fill-opacity:1 ;stroke:none;}

      #GlyphKey  { fill:none       ;stroke:grey   ;stroke-width:1;}
      #ModifKey  { fill:gainsboro  ;stroke:grey   ;stroke-width:1;}
      #OtherKey  { fill:silver     ;stroke:grey   ;stroke-width:1;}
     ]]>
       
    </style>        
</defs>
<!-- ========  Keyboard background ======== -->
<g inkscape:groupmode="layer" id="layer1" inkscape:label="Background" style="display:inline" sodipodi:insensitive="true">
      <rect id="Bckgrd" x="0" y="0" width="800" height="247" style="fill:white;stroke:none"/>
</g>

<!-- ========     Keys      ======== -->
<g inkscape:groupmode="layer" id="layer2" inkscape:label="Keys" style="display:inline" sodipodi:insensitive="true">
  <g id="GlyphKey">
<!-- Num keys -->
<!-- Standard letters keys -->
<!-- Specials glyphs keys -->
<!-- Ponctuation keys -->
    <rect id="K_2a" x="2" y="2" width="48" height="44" rx="6" ry="6"/>
    <rect id="K_2b" x="56" y="2" width="48" height="44" rx="6" ry="6"/>
    <rect id="K_2c" x="110" y="2" width="48" height="44" rx="6" ry="6"/>
    <rect id="K_2d" x="164" y="2" width="48" height="44" rx="6" ry="6"/>
    <rect id="K_2e" x="218" y="2" width="48" height="44" rx="6" ry="6"/>
    <rect id="K_2f" x="272" y="2" width="48" height="44" rx="6" ry="6"/>
    <rect id="K_2g" x="326" y="2" width="48" height="44" rx="6" ry="6"/>
    <rect id="K_2h" x="380" y="2" width="48" height="44" rx="6" ry="6"/>
    <rect id="K_2i" x="434" y="2" width="48" height="44" rx="6" ry="6"/>
    <rect id="K_2j" x="488" y="2" width="48" height="44" rx="6" ry="6"/>
    <rect id="K_2k" x="542" y="2" width="48" height="44" rx="6" ry="6"/>
    <rect id="K_2l" x="596" y="2" width="48" height="44" rx="6" ry="6"/>
    <rect id="K_2m" x="650" y="2" width="48" height="44" rx="6" ry="6"/>
    <rect id="K_3b" x="82" y="52" width="48" height="44" rx="6" ry="6"/>
    <rect id="K_3c" x="136" y="52" width="48" height="44" rx="6" ry="6"/>
    <rect id="K_3d" x="190" y="52" width="48" height="44" rx="6" ry="6"/>
    <rect id="K_3e" x="244" y="52" width="48" height="44" rx="6" ry="6"/>
    <rect id="K_3f" x="298" y="52" width="48" height="44" rx="6" ry="6"/>
    <rect id="K_3g" x="352" y="52" width="48" height="44" rx="6" ry="6"/>
    <rect id="K_3h" x="406" y="52" width="48" height="44" rx="6" ry="6"/>
    <rect id="K_3i" x="460" y="52" width="48" height="44" rx="6" ry="6"/>
    <rect id="K_3j" x="514" y="52" width="48" height="44" rx="6" ry="6"/>
    <rect id="K_3k" x="568" y="52" width="48" height="44" rx="6" ry="6"/>
    <rect id="K_3l" x="622" y="52" width="48" height="44" rx="6" ry="6"/>
    <rect id="K_3m" x="676" y="52" width="48" height="44" rx="6" ry="6"/>
    <rect id="K_4b" x="98" y="102" width="48" height="44" rx="6" ry="6"/>
    <rect id="K_4c" x="152" y="102" width="48" height="44" rx="6" ry="6"/>
    <rect id="K_4d" x="206" y="102" width="48" height="44" rx="6" ry="6"/>
    <rect id="K_4e" x="260" y="102" width="48" height="44" rx="6" ry="6"/>
    <rect id="K_4f" x="314" y="102" width="48" height="44" rx="6" ry="6"/>
    <rect id="K_4g" x="368" y="102" width="48" height="44" rx="6" ry="6"/>
    <rect id="K_4h" x="422" y="102" width="48" height="44" rx="6" ry="6"/>
    <rect id="K_4i" x="476" y="102" width="48" height="44" rx="6" ry="6"/>
    <rect id="K_4j" x="530" y="102" width="48" height="44" rx="6" ry="6"/>
    <rect id="K_4k" x="584" y="102" width="48" height="44" rx="6" ry="6"/>
    <rect id="K_4l" x="638" y="102" width="48" height="44" rx="6" ry="6"/>
    <rect id="K_4m" x="692" y="102" width="48" height="44" rx="6" ry="6"/>
    <rect id="K_5b" x="64" y="152" width="48" height="44" rx="6" ry="6"/>
    <rect id="K_5c" x="118" y="152" width="48" height="44" rx="6" ry="6"/>
    <rect id="K_5d" x="172" y="152" width="48" height="44" rx="6" ry="6"/>
    <rect id="K_5e" x="226" y="152" width="48" height="44" rx="6" ry="6"/>
    <rect id="K_5f" x="280" y="152" width="48" height="44" rx="6" ry="6"/>
    <rect id="K_5g" x="334" y="152" width="48" height="44" rx="6" ry="6"/>
    <rect id="K_5h" x="388" y="152" width="48" height="44" rx="6" ry="6"/>
    <rect id="K_5i" x="442" y="152" width="48" height="44" rx="6" ry="6"/>
    <rect id="K_5j" x="496" y="152" width="48" height="44" rx="6" ry="6"/>
    <rect id="K_5k" x="550" y="152" width="48" height="44" rx="6" ry="6"/>
    <rect id="K_5l" x="604" y="152" width="48" height="44" rx="6" ry="6"/>
    <rect id="K_6d" x="188" y="202" width="364" height="44" rx="6" ry="6"/>
  </g>

<!-- Modification keys -->
  <g id="ModifKey">
    <rect id="K_4a" x="2" y="102" width="90" height="44" rx="6" ry="6"/>
    <rect id="K_5a" x="2" y="152" width="56" height="44" rx="6" ry="6"/>
    <rect id="K_5m" x="658" y="152" width="142" height="44" rx="6" ry="6"/>
    <rect id="K_6k" x="558" y="202" width="56" height="44" rx="6" ry="6"/>
    </g>
  
<!-- Others keys : Backspace, Enter key, Tabulation key, keys for Shortcut, Windows keys, Menu key -->
  <g id="OtherKey">
    <rect id="K_2no" x="704" y="2" width="96" height="44" rx="6" ry="6"/>
    <path id="K_34no" sodipodi:nodetypes="ssssssssccss" d="M 736.16,51.79 C 732.72,51.79 730.23,54.35 730.22,57.03 L 730.16,89.63 C 730.15,92.94 732.85,96 736.16,96         L 740.15,96 C 743.231,96 745.85,99.04 745.85,101.59 745.85,104.14 746.09,126.16 746.09,139.44 746.09,141.43           748.11,145.41 752.09,145.41 766.03,145.41 779.97,145.41 793.91,145.41 797.89,145.41 799.88,141.43 799.88,139.44           799.88,112.22 799.88,85 799.88,57.78 799.88,55.79 797.89,51.78 793.91,51.78 z"/>

    <rect id="K_3a" x="2" y="52" width="74" height="44" rx="6" ry="6"/>
    <rect id="K_6a" x="2" y="202" width="56" height="44" rx="6" ry="6"/>
    <rect id="K_6b" x="64" y="202" width="56" height="44" rx="6" ry="6"/>
    <rect id="K_6c" x="126" y="202" width="56" height="44" rx="6" ry="6"/>
    <rect id="K_6l" x="620" y="202" width="56" height="44" rx="6" ry="6"/>
    <rect id="K_6m" x="682" y="202" width="56" height="44" rx="6" ry="6"/>
    <rect id="K_6n" x="744" y="202" width="56" height="44" rx="6" ry="6"/>
  </g>
  
</g>
<!-- ========     Key signs    ======== -->
<g inkscape:groupmode="layer" id="DrawedInscr" inkscape:label="DrawedInscr" style="display:inline">
  
<!-- Windows keys -->
  <g id="g3447">
    <g id="g3433" style="stroke:white;stroke-width:0.4">
      <g id="I_kwin1">
        <path id="T_kwin1lg1" style="fill:#666" d="M 75.38,223.05 C 78.27,222 81.28,222.2 84.41,223.34 L 86.84,216.82 C 83.92,215.72 80.95,215.23 77.75,216.6 L 75.38,223.05 z" sodipodi:nodetypes="ccccc" inkscape:connector-curvature="0"/>
        <path id="T_kwin1lg2" style="fill:#9b9b9b" d="M 87.6,216.98 C 91.71,218.37 94.64,217.9 96.86,217.44 L 94.48,223.7 C 90.21,225.27 87.64,224.25 85.14,223.55 L 87.6,216.98 z" sodipodi:nodetypes="ccccc" inkscape:connector-curvature="0"/>
        <path id="T_kwin1lg3" style="fill:#c1c1c1" d="M 84.94,224.13 C 87.69,225.01 90.58,225.56 94.22,224.43 L 91.29,231.55 C 87.82,232.87 85.18,232.42 82.23,231.37 L 84.94,224.13 z" sodipodi:nodetypes="ccccc" inkscape:connector-curvature="0"/>
        <path id="T_kwin1lg4" style="fill:#555" d="M 72.38,230.91 C 75.31,229.76 78.33,230 81.41,231.16 L 84.14,223.9 C 82.86,223.47 80,222.29 75,223.82 L 72.38,230.91 z" sodipodi:nodetypes="ccccc" inkscape:connector-curvature="0"/>
        <text id="T_kwin1tm" x="94" y="235" class="T_start T_size_s C_black">™</text>

      </g>
      <use id="I_kwin2" xlink:href="#I_kwin1" transform="translate(556,0)" x="0" y="0" width="1" height="1"/>
    </g>
<!--   Menu key     -->
    <g id="g3402">
      <rect id="T_menu_1" x="690" y="214" width="16" height="20" style="fill:#d2cfcf;stroke:black;stroke-width:1;stroke-linecap:round;stroke-linejoin:round"/>
      <path id="T_menu_2" style="fill:none;stroke:black;stroke-width:4;stroke-linecap:square;stroke-linejoin:miter" d="M 691.5,214 704.5,214 M 691.5,219 704.5,219"/>
      <path id="T_menu_3" style="fill:none;stroke:black;stroke-width:2;stroke-linecap:square;stroke-linejoin:miter" d="M 693,223 703,223 M 693,227 703,227 M 693,231 703,231"/>
      <path id="T_menu_4" style="fill:none;stroke:#d2cfcf;stroke-width:2;stroke-linecap:square;stroke-linejoin:miter" d="M 693,219 703,219"/>
      <path id="T_menu_arrow" style="fill:#d2cfcf;stroke:black;stroke-width:1.4;stroke-linecap:butt;stroke-linejoin:round" d="M 706,231 708,228 712,232 714,230 710,226 712,224 701,219 706,231 z" sodipodi:nodetypes="cccccccc"/>
    </g>
<!--   Backspace     -->
    <path id="A_backsp" style="fill:none;stroke:black;stroke-width:2;marker-end:url(#TriangleOutM)" d="M 738,24 718,24" sodipodi:nodetypes="cc"/>
   </g>
  
<!-- ========     Alternates signs    ======== -->
    <g inkscape:groupmode="layer" id="sublayer3a" inkscape:label="signes alternatifs" sodipodi:insensitive="true" style="display:inline">
<!--    Arrows         -->
<!--      Tabulations  -->
    <path id="A_tabL" style="fill:none;stroke:black;stroke-width:2;marker-end:url(#TriangleOutM)" d="M 34,66 14,66"/>
    <path id="A_tabL2" style="fill:none;stroke:black;stroke-width:2" d="M 10,60 10,72"/>
    <path id="A_tabR" style="fill:none;stroke:black;stroke-width:2;marker-end:url(#TriangleOutM)" d="M 10,82 30,82"/>
    <path id="A_tabR" style="fill:none;stroke:black;stroke-width:2" d="M 34,76 34,88"/>
    <path id="A_maj1" style="fill:none;stroke:black;stroke-width:2" d="M 18,166 10,174 14,174 14,180 22,180 22,174 26,174 z" inkscape:connector-curvature="0"/>
    <use id="A_maj2" xlink:href="#A_maj1" transform="translate(660,0)" x="0" y="0" width="1" height="1"/>
    <path id="A_Ent1" style="fill:none;stroke:black;stroke-width:2;marker-end:url(#TriangleOutM)" d="M 784,110 784,118 766,118" inkscape:connector-curvature="0"/>
<!--      Majlock  -->
    <g id="g3409">
    <rect id="MLock1" x="10" y="120" width="18" height="14" ry="1" rx="1" style="fill:none;stroke:black;stroke-width:1.6"/>
    <path id="MLock2" style="fill:none;stroke:black;stroke-width:1.4" d="M 12,120 v-3 a7,6 0 0,1 14,0 v3 m-12,0 v-3 a5,4 0 0,1 10,0 v3"/>
     <ellipse id="MLock3" cx="19" cy="125" rx="1" ry="2" sodipodi:cx="19" sodipodi:cy="125" sodipodi:rx="1" sodipodi:ry="2" style="fill:none;stroke:black;stroke-width:1.2"/>
    </g>
  </g>
</g>
<!-- ========     Inscriptions layer    ======== -->
<g inkscape:groupmode="layer" id="fr-fr" inkscape:label="incriptions" sodipodi:insensitive="true" style="display:inline">
  
  <g id="I_spec" class="T_center T_size_M C_black">
    <text id="T_kb2a2" x="14" y="40">²</text>
    <text id="T_kb2b2" x="68" y="40">&amp;</text>
    <text id="T_kb2c2" x="122" y="40">é</text>
    <text id="T_kb2d2" x="176" y="40">"</text>
    <text id="T_kb2e2" x="230" y="40">'</text>
    <text id="T_kb2f2" x="284" y="40">(</text>
    <text id="T_kb2g2" x="338" y="40">-</text>
    <text id="T_kb2h2" x="392" y="40">è</text>
    <text id="T_kb2i2" x="446" y="36">_</text>
    <text id="T_kb2j2" x="500" y="40">ç</text>
    <text id="T_kb2k2" x="554" y="40">à</text>
    <text id="T_kb2l2" x="610" y="40">)</text>
    <text id="T_kb2m1" x="610" y="20">°</text>
    <text id="T_kb2m2" x="664" y="40">=</text>
    <text id="T_kb2n1" x="664" y="20">+</text>
    <text id="T_kb3l1" x="636" y="72" class="C_DeadKey">¨</text>
    <text id="T_kb3l2" x="636" y="92" class="C_DeadKey">^</text>
    <text id="T_kb3m1" x="690" y="70">£</text>
    <text id="T_kb3m2" x="690" y="92">$</text>

    <text id="T_kb4l1" x="650" y="120">%</text>
    <text id="T_kb4l2" x="650" y="142">ù</text>
    <text id="T_kb4m1" x="704" y="120">µ</text>
    <text id="T_kb4m2" x="704" y="146">*</text>
    <text id="T_kb5b1" x="78" y="170">&gt;</text>
    <text id="T_kb5b2" x="78" y="188">&lt;</text>

    <g id="I_sp_AltGr" class="C_AltGr">
      <text id="T_kb2c3" x="148" y="40">~</text>
      <text id="T_kb2d3" x="202" y="40">#</text>
      <text id="T_kb2e3" x="256" y="40">{</text>
      <text id="T_kb2f3" x="310" y="40">[</text>
      <text id="T_kb2g3" x="364" y="40">|</text>
      <text id="T_kb2h3" x="418" y="40" class="T_bold">`</text>
      <text id="T_kb2i3" x="472" y="40" class="T_bold">\</text>
      <text id="T_kb2j3" x="526" y="42">^</text>
      <text id="T_kb2k3" x="580" y="40">@</text>
      <text id="T_kb2l3" x="634" y="40">]</text>
      <text id="T_kb2m3" x="688" y="40">}</text>
      <text id="T_kb3m3" x="716" y="92">¤</text>
    </g>
  <g id="I_punct">
    <text id="T_kb5i1" x="454" y="172">?</text>
    <text id="T_kb5i2" x="454" y="190">,</text>
    <text id="T_kb5j1" x="508" y="170">.</text>
    <text id="T_kb5j2" x="508" y="190">;</text>
    <text id="T_kb5k1" x="562" y="172" class="T_bold">/</text>
    <text id="T_kb5k2" x="562" y="190">:</text>
    <text id="T_kb5l1" x="616" y="170">§</text>
    <text id="T_kb5l2" x="616" y="192">!</text>
  </g>
  <g id="I_num" class="C_grey">
    <text id="T_kb1b2" x="68" y="20">1</text> 
    <text id="T_kb1c2" x="122" y="20">2</text>
    <text id="T_kb1d2" x="176" y="20">3</text>
    <text id="T_kb1e2" x="230" y="20">4</text>
    <text id="T_kb1f2" x="284" y="20">5</text>
    <text id="T_kb1g2" x="338" y="20">6</text>
    <text id="T_kb1h2" x="392" y="20">7</text>
    <text id="T_kb1i2" x="446" y="20">8</text>
    <text id="T_kb1k2" x="500" y="20">9</text>
    <text id="T_kb1l2" x="554" y="20">0</text>
  </g>
  <g id="I_std" class="T_center T_size_L C_black">
    <text id="T_kb3b" x="96" y="72">A</text>
    <text id="T_kb3c" x="150" y="72">Z</text>
    <text id="T_kb3d" x="204" y="72">E</text>
    <text id="T_kb3d2" x="228" y="92" class="C_AltGr">€</text>
    <text id="T_kb3e" x="258" y="72">R</text>
    <text id="T_kb3f" x="312" y="72">T</text>
    <text id="T_kb3g" x="366" y="72">Y</text>
    <text id="T_kb3h" x="420" y="72">U</text>
    <text id="T_kb3i" x="474" y="72">I</text>
    <text id="T_kb3j" x="528" y="72">O</text>
    <text id="T_kb3k" x="582" y="72">P</text>

    <text id="T_kb4b" x="112" y="122">Q</text>
    <text id="T_kb4c" x="166" y="122">S</text>
    <text id="T_kb4d" x="220" y="122">D</text>
    <text id="T_kb4e" x="274" y="122">F</text>
    <text id="T_kb4f" x="328" y="122">G</text>
    <text id="T_kb4g" x="382" y="122">H</text>
    <text id="T_kb4h" x="436" y="122">J</text>
    <text id="T_kb4i" x="490" y="122">K</text>
    <text id="T_kb4j" x="544" y="122">L</text>
    <text id="T_kb4k" x="598" y="122">M</text>

    <text id="T_kb5c" x="132" y="172">W</text>
    <text id="T_kb5d" x="186" y="172">X</text>
    <text id="T_kb5e" x="240" y="172">C</text>
    <text id="T_kb5f" x="294" y="172">V</text>
    <text id="T_kb5g" x="348" y="172">B</text>
    <text id="T_kb5h" x="402" y="172">N</text>
  </g>

</g>
  <g id="I_other" class="T_start T_size_m C_black">
    <text id="T_kb6a" x="10" y="230">Ctrl</text>
    <text id="T_kb6c" x="134" y="230">Alt</text>
    <text id="T_kb6k" x="564" y="230" class="C_AltGr">Alt Gr</text>
    <text id="T_kb6n" x="750" y="230">Ctrl</text>
  </g>
<!-- ========     alternates inscriptions    ======== -->
  <g inkscape:groupmode="layer" id="sublayer4a" inkscape:label="inscriptions alternatives" style="display:inline">
    <g id="T_inscr2" class="T_start T_size_S C_grey">
      <text id="E_kb2p1" x="748" y="20">Suppr</text>
      <text id="E_kb2p2" x="748" y="38">arrière</text>
      <text id="T_kb3a" x="38" y="80">Tab</text>
      <text id="T_kb4a1" x="36" y="120">Verr</text>
      <text id="T_kb4a2" x="36" y="136">Maj</text>
      <text id="T_kb5a" x="32" y="180">Maj</text>
      <text id="T_kb5m" x="696" y="180">Maj</text>
      <text id="T_kb3n" x="746" y="78">Entrée</text>
    </g>
  </g>
<!-- ========        Linux Key with AltGr     ======== -->
  <g inkscape:groupmode="layer" id="sublayer4b" inkscape:label="inscriptions linux" style="display:none">
    <g id="I_linux" class="T_center T_size_M C_Linux">
      <text id="T_kb2a3" x="14" y="22">¹</text>
      <text id="T_kb3b3" x="120" y="92">æ</text>
      <text id="T_kb3c3" x="174" y="92">â</text>
      <text id="T_kb3e3" x="282" y="92">ê</text>
      <text id="T_kb3f3" x="336" y="92">þ</text>
      <text id="T_kb3g3" x="390" y="92">ÿ</text>
      <text id="T_kb3h3" x="444" y="92">û</text>
      <text id="T_kb3i3" x="498" y="92">î</text>
      <text id="T_kb3j3" x="552" y="92">œ</text>
      <text id="T_kb3k3" x="606" y="92">ô</text>

      <text id="T_kb4b3" x="136" y="142">ä</text>
      <text id="T_kb4c3" x="190" y="142">ß</text>
      <text id="T_kb4d3" x="244" y="142">ë</text>
      <text id="T_kb4e3" x="298" y="144" class="T_size_L">‘</text>
      <text id="T_kb4f3" x="352" y="144" class="T_size_L">’</text>
      <text id="T_kb4g3" x="406" y="142">ð</text>
      <text id="T_kb4h3" x="460" y="142">ü</text>
      <text id="T_kb4i3" x="514" y="142">ï</text>
      <text id="T_kb4j3" x="568" y="142">ŀ</text>
      <text id="T_kb4k3" x="622" y="142">ö</text>
      <text id="T_kb4l3" x="674" y="144" class="T_size_L C_Linux_D">´</text>
      <text id="T_kb4m3" x="728" y="144" class="T_size_L C_Linux_D">`</text>

      <text id="T_kb5b3" x="102" y="170">≥</text>
      <text id="T_kb5c3" x="156" y="192" class="T_size_L">«</text>
      <text id="T_kb5d3" x="210" y="192" class="T_size_L">»</text>
      <text id="T_kb5e3" x="264" y="192">©</text>
      <text id="T_kb5g3" x="372" y="190">↓</text>
      <text id="T_kb5h3" x="426" y="192">¬</text>
      <text id="T_kb5i3" x="478" y="190">¿</text>
      <text id="T_kb5j3" x="532" y="192">×</text>
      <text id="T_kb5k3" x="586" y="192">÷</text>
      <text id="T_kb5l3" x="640" y="190">¡</text>
    </g>
<!-- ======== Linux Key with AltGr & Maj   ======== -->
    <g id="I_linux_maj" class="T_center T_size_M C_Linux_M">
      <text id="T_kb2a4" x="32" y="20" class="T_size_L C_Linux_D">¸</text>
      <text id="T_kb2b4" x="94" y="20" class="T_size_L C_Linux_D">˛</text> 
      <text id="T_kb2c4" x="148" y="20" class="C_Linux_X">É</text>
      <text id="T_kb2d4" x="202" y="20" class="T_size_L C_Linux_D">˘</text>
      <text id="T_kb2e4" x="256" y="20" class="T_bold">—</text>
      <text id="T_kb2f4" x="310" y="20" class="T_bold">–</text>
      <text id="T_kb2g4" x="364" y="20" class="T_bold">‑</text>
      <text id="T_kb2h4" x="418" y="20" class="C_Linux_X">È</text>
      <text id="T_kb2i4" x="472" y="20" class="T_bold">™</text>
      <text id="T_kb2j4" x="526" y="20" class="C_Linux_X">Ç</text>
      <text id="T_kb2k4" x="580" y="20" class="C_Linux_X">À</text>
      <text id="T_kb2l4" x="634" y="20">≠</text>
      <text id="T_kb2m4" x="688" y="20">±</text>

      <text id="T_kb3b4" x="120" y="72" class="C_Linux_X">Æ</text>
      <text id="T_kb3c4" x="174" y="72" class="C_Linux_X">Â</text>
      <text id="T_kb3d4" x="228" y="72">¢</text>
      <text id="T_kb3e4" x="282" y="72" class="C_Linux_X">Ê</text>
      <text id="T_kb3f4" x="336" y="72" class="C_Linux_X">Þ</text>
      <text id="T_kb3g4" x="390" y="72" class="C_Linux_X">Ÿ</text>
      <text id="T_kb3h4" x="444" y="72" class="C_Linux_X">Û</text>
      <text id="T_kb3i4" x="498" y="72" class="C_Linux_X">Î</text>
      <text id="T_kb3j4" x="550" y="72" class="C_Linux_X">Œ</text>
      <text id="T_kb3k4" x="606" y="72" class="C_Linux_X">Ô</text>
      <text id="T_kb3m4" x="716" y="70">Ø</text>

      <text id="T_kb4b4" x="136" y="122" class="C_Linux_X">Ä</text>
      <text id="T_kb4c4" x="192" y="122">„</text>
      <text id="T_kb4d4" x="244" y="122" class="C_Linux_X">Ë</text>
      <text id="T_kb4e4" x="298" y="122">‚</text>
      <text id="T_kb4f4" x="352" y="122">¥</text>
      <text id="T_kb4g4" x="406" y="122" class="C_Linux_X">Ð</text>
      <text id="T_kb4h4" x="460" y="122" class="C_Linux_X">Ü</text>
      <text id="T_kb4i4" x="514" y="122" class="C_Linux_X">Ï</text>
      <text id="T_kb4j4" x="568" y="122" class="C_Linux_X">Ŀ</text>
      <text id="T_kb4k4" x="622" y="122" class="C_Linux_X">Ö</text>
      <text id="T_kb4l4" x="676" y="122">Ù</text>
      <text id="T_kb4m4" x="730" y="122" class="T_size_L C_Linux_D">¯</text>

      <text id="T_kb5b4" x="102" y="188">≤</text>
      <text id="T_kb5c4" x="156" y="172">“</text>
      <text id="T_kb5d4" x="210" y="172">”</text>
      <text id="T_kb5e4" x="264" y="172">®</text>
      <text id="T_kb5f4" x="318" y="170">←</text>
      <text id="T_kb5g4" x="372" y="170">↑</text>
      <text id="T_kb5h4" x="426" y="170">→</text>
      <text id="T_kb5i4" x="478" y="170">…</text>
      <text id="T_kb5j4" x="532" y="170">⋅</text>
      <text id="T_kb5k4" x="586" y="170">∕</text>
      <text id="T_kb5l4" x="640" y="170">−</text>
    </g>
  </g>
</g>
</svg>